<?xml version="1.0" encoding="UTF-8"?>
<!DOCTYPE svg PUBLIC "-//W3C//DTD SVG 1.1//EN" "http://www.w3.org/Graphics/SVG/1.1/DTD/svg11.dtd">
<!-- Creator: CorelDRAW X8 -->
<svg xmlns="http://www.w3.org/2000/svg" xml:space="preserve" width="13.0968mm" height="14.8166mm" version="1.1" style="shape-rendering:geometricPrecision; text-rendering:geometricPrecision; image-rendering:optimizeQuality; fill-rule:evenodd; clip-rule:evenodd"
viewBox="0 0 6483 7334"
 xmlns:xlink="http://www.w3.org/1999/xlink">
 <defs>
  <style type="text/css">
   <![CDATA[
    .fil0 {fill:red}
   ]]>
  </style>
 </defs>
 <g id="Слой_x0020_1">
  <metadata id="CorelCorpID_0Corel-Layer"/>
  <path class="fil0" d="M0 6679l0 -6024c0,-360 295,-655 655,-655l3405 0c360,0 655,295 655,655l0 6024c0,361 -295,655 -655,655l-3405 0c-360,0 -655,-294 -655,-655zm1490 -5762l2456 0c99,0 180,81 180,180l0 0c0,98 -81,179 -180,179l-2456 0c-99,0 -180,-81 -180,-179l0 0c0,-99 81,-180 180,-180zm-721 920c1059,0 2118,0 3177,0 99,0 180,81 180,180 0,0 0,0 0,0 0,99 -81,179 -180,179 -1059,0 -2118,0 -3177,0 -99,0 -180,-80 -180,-179 0,0 0,0 0,0 0,-99 81,-180 180,-180zm0 920c1059,0 2118,0 3177,0 99,0 180,81 180,180 0,0 0,0 0,0 0,99 -81,180 -180,180 -1059,0 -2118,0 -3177,0 -99,0 -180,-81 -180,-180 0,0 0,0 0,0 0,-99 81,-180 180,-180zm0 920c1059,0 2118,0 3177,0 99,0 180,81 180,180 0,0 0,0 0,0 0,99 -81,180 -180,180 -1059,0 -2118,0 -3177,0 -99,0 -180,-81 -180,-180 0,0 0,0 0,0 0,-99 81,-180 180,-180zm0 920c1059,0 2118,0 3177,0 99,0 180,81 180,180 0,0 0,0 0,0 0,99 -81,180 -180,180 -1059,0 -2118,0 -3177,0 -99,0 -180,-81 -180,-180 0,0 0,0 0,0 0,-99 81,-180 180,-180zm0 920l3177 0c99,0 180,81 180,180l0 0c0,99 -81,180 -180,180l-3177 0c-99,0 -180,-81 -180,-180l0 0c0,-99 81,-180 180,-180zm4994 -4469l393 0 0 4518c0,108 -89,197 -197,197l0 0c-108,0 -196,-89 -196,-197l0 -4518zm654 65l66 0 0 2096 -66 0 0 -2096z"/>
 </g>
</svg>
