<?xml version="1.0" encoding="UTF-8"?>
<!DOCTYPE svg PUBLIC "-//W3C//DTD SVG 1.1//EN" "http://www.w3.org/Graphics/SVG/1.1/DTD/svg11.dtd">
<!-- Creator: CorelDRAW X8 -->
<svg xmlns="http://www.w3.org/2000/svg" xml:space="preserve" width="37.6552mm" height="19.8983mm" version="1.1" style="shape-rendering:geometricPrecision; text-rendering:geometricPrecision; image-rendering:optimizeQuality; fill-rule:evenodd; clip-rule:evenodd"
viewBox="0 0 157441 83197"
 xmlns:xlink="http://www.w3.org/1999/xlink">
 <defs>
  <style type="text/css">
   <![CDATA[
    .fil1 {fill:red;fill-rule:nonzero}
    .fil0 {fill:white;fill-rule:nonzero}
   ]]>
  </style>
 </defs>
 <g id="Слой_x0020_1">
  <metadata id="CorelCorpID_0Corel-Layer"/>
  <g id="_804861824">
   <polygon class="fil0" points="72225,82374 62659,82374 62659,66091 48663,66091 48663,82374 39098,82374 39098,45379 48663,45379 48663,58916 62659,58916 62659,45379 72225,45379 "/>
   <polygon class="fil0" points="114038,82374 102334,82374 91299,67574 91292,67584 89103,64652 89103,70297 89103,82374 79536,82374 79536,45379 89103,45379 89103,60814 89103,60995 102274,45379 113325,45379 98890,62493 "/>
   <path class="fil0" d="M18905 83137c-2757,0 -5292,-406 -7625,-1221 -2332,-814 -4334,-2027 -6005,-3639 -1680,-1603 -2977,-3612 -3893,-6022 -925,-2408 -1382,-5190 -1382,-8344 0,-2936 441,-5598 1315,-7990 882,-2391 2162,-4444 3833,-6149 1611,-1645 3604,-2917 5980,-3808 2382,-899 4977,-1348 7802,-1348 1552,0 2959,84 4216,263 1246,169 2408,398 3468,678 1111,322 2112,670 3019,1060 908,390 1697,746 2375,1086l0 8973 -1094 0c-466,-398 -1052,-865 -1755,-1408 -705,-543 -1502,-1077 -2401,-1603 -907,-525 -1900,-967 -2960,-1332 -1060,-365 -2197,-542 -3401,-542 -1348,0 -2621,212 -3833,636 -1213,415 -2332,1119 -3359,2095 -975,949 -1772,2197 -2374,3748 -603,1561 -908,3452 -908,5666 0,2324 331,4258 984,5818 653,1552 1476,2781 2476,3672 1009,916 2138,1561 3376,1951 1246,390 2476,585 3680,585 1162,0 2316,-170 3452,-517 1129,-339 2180,-805 3147,-1400 805,-475 1561,-975 2256,-1517 696,-543 1273,-1009 1722,-1400l992 0 0 8837c-924,407 -1815,797 -2663,1162 -839,364 -1730,679 -2663,942 -1204,348 -2341,610 -3400,796 -1061,179 -2520,272 -4377,272z"/>
   <path class="fil0" d="M33484 26029c0,3638 -1544,6599 -4631,8871 -3087,2282 -7278,3418 -12569,3418 -3062,0 -5734,-271 -8007,-805 -2281,-534 -4409,-1222 -6394,-2045l0 -8853 507 0 536 0c1968,1568 4173,2773 6607,3621 2442,839 4783,1263 7031,1263 584,0 1340,-50 2290,-153 941,-92 1705,-262 2307,-491 720,-306 1322,-678 1797,-1120 467,-450 705,-1119 705,-1993 0,-814 -340,-1509 -1028,-2104 -686,-584 -1696,-1034 -3018,-1347 -1391,-331 -2859,-645 -4411,-933 -1543,-289 -3001,-662 -4358,-1103 -3114,-1010 -5344,-2383 -6709,-4114 -1366,-1729 -2053,-3876 -2053,-6445 0,-3443 1544,-6251 4631,-8431 3087,-2179 7056,-3265 11908,-3265 2434,0 4834,238 7208,705 2384,474 4437,1068 6175,1780l0 8506 -1018 0c-1485,-1186 -3316,-2179 -5471,-2976 -2162,-797 -4368,-1196 -6615,-1196 -797,0 -1586,51 -2366,161 -789,110 -1544,306 -2272,602 -646,255 -1197,628 -1663,1129 -466,500 -695,1077 -695,1721 0,975 372,1722 1119,2248 746,516 2146,991 4216,1425 1356,280 2662,559 3918,822 1246,263 2586,628 4028,1094 2833,925 4919,2188 6268,3782 1349,1595 2027,3673 2027,6226z"/>
   <polygon class="fil0" points="72297,37657 62731,37657 62731,21373 48736,21373 48736,37657 39170,37657 39170,661 48736,661 48736,14199 62731,14199 62731,661 72297,661 "/>
   <polygon class="fil0" points="114364,661 100878,37657 90192,37657 76707,661 86732,661 95671,26640 104610,661 "/>
   <path class="fil0" d="M144149 4639c0,-1217 352,-2185 1058,-2902 705,-718 1739,-1076 3101,-1076l5516 0 0 1736 -5317 0c-928,0 -1627,223 -2098,669 -470,447 -705,1086 -705,1917 0,940 274,1683 823,2225 548,541 1335,813 2360,813l4937 0 0 1736 -9585 0 0 -1663 1447 0c-495,-350 -874,-823 -1140,-1420 -264,-597 -397,-1274 -397,-2035zm7757 13419c0,-627 -132,-1191 -397,-1691 -266,-500 -636,-892 -1112,-1175 -477,-283 -1016,-425 -1619,-425 -928,0 -1679,308 -2251,922 -573,615 -859,1404 -859,2369 0,976 286,1772 859,2387 572,614 1323,922 2251,922 603,0 1142,-142 1619,-425 476,-283 846,-675 1112,-1175 265,-501 397,-1070 397,-1709zm-7667 -4992l8283 0c1676,0 2914,417 3716,1248 802,833 1203,2075 1203,3725 0,904 -124,1767 -372,2586 -246,821 -599,1483 -1057,1990l-1338 -832c385,-446 690,-998 913,-1655 223,-657 335,-1335 335,-2034 0,-1121 -266,-1950 -796,-2487 -531,-536 -1338,-804 -2424,-804l-760 0c495,410 866,913 1113,1510 247,597 371,1244 371,1943 0,917 -196,1746 -588,2487 -391,742 -940,1324 -1645,1745 -706,422 -1510,634 -2415,634 -904,0 -1709,-212 -2414,-634 -705,-421 -1251,-1003 -1636,-1745 -386,-741 -579,-1570 -579,-2487 0,-722 133,-1395 397,-2016 266,-621 658,-1129 1176,-1527l-1483 0 0 -1647zm0 14215l0 -1737 9585 0 0 1737 -9585 0zm9693 6311c0,784 -105,1537 -316,2260 -211,723 -479,1290 -805,1700l-1375 -723c302,-422 543,-934 724,-1538 180,-603 272,-1211 272,-1827 0,-1518 -435,-2277 -1303,-2277 -290,0 -518,102 -687,307 -169,205 -292,461 -371,769 -78,307 -166,744 -262,1311 -121,771 -259,1400 -416,1889 -156,488 -422,907 -795,1257 -375,349 -899,525 -1574,525 -868,0 -1564,-363 -2089,-1086 -524,-723 -786,-1693 -786,-2911 0,-639 78,-1278 235,-1917 156,-639 367,-1163 633,-1573l1374 742c-506,783 -759,1706 -759,2766 0,735 121,1296 362,1682 241,386 560,579 958,579 313,0 561,-109 741,-326 181,-218 314,-485 398,-805 85,-319 181,-768 290,-1347 132,-772 274,-1395 425,-1872 150,-476 406,-882 767,-1221 363,-337 869,-505 1520,-505 868,0 1558,370 2070,1111 513,742 769,1751 769,3030zm-8319 9891c0,832 254,1528 760,2089 507,561 1170,889 1989,985l0 -6149c-808,97 -1467,426 -1980,986 -512,561 -769,1257 -769,2089zm3472 -4738c134,0 308,12 524,36l0 7776c845,-108 1523,-479 2035,-1112 513,-633 769,-1420 769,-2360 0,-1145 -385,-2067 -1157,-2767l1120 -958c508,433 894,973 1159,1618 265,646 397,1365 397,2162 0,1012 -208,1910 -624,2694 -415,783 -998,1389 -1745,1818 -747,428 -1591,642 -2531,642 -929,0 -1767,-209 -2514,-625 -748,-416 -1330,-988 -1745,-1718 -416,-729 -624,-1552 -624,-2468 0,-916 208,-1734 624,-2451 415,-717 997,-1277 1745,-1681 747,-404 1603,-606 2567,-606zm3328 16891c0,-603 -141,-1152 -425,-1646 -283,-495 -681,-880 -1194,-1157 -512,-278 -1099,-416 -1762,-416 -663,0 -1251,138 -1764,416 -512,277 -907,662 -1184,1157 -278,494 -416,1043 -416,1646 0,614 138,1166 416,1654 277,488 672,874 1184,1158 513,283 1101,425 1764,425 663,0 1250,-142 1762,-425 513,-284 911,-670 1194,-1158 284,-488 425,-1040 425,-1654zm-12008 -4937l13419 0 0 1663 -1519 0c531,387 934,875 1211,1465 277,591 416,1242 416,1953 0,929 -205,1760 -615,2496 -410,735 -986,1310 -1726,1727 -742,416 -1595,624 -2559,624 -965,0 -1815,-208 -2551,-624 -735,-417 -1307,-992 -1717,-1727 -410,-736 -615,-1567 -615,-2496 0,-687 129,-1320 388,-1899 259,-578 642,-1060 1149,-1447l-5281 0 0 -1735zm12117 27960c0,-1255 -398,-2285 -1194,-3093l-3580 3599c482,868 931,1473 1347,1817 416,343 882,516 1401,516 604,0 1091,-263 1465,-788 374,-524 561,-1208 561,-2051zm-10200 -435c0,567 142,1010 424,1330 284,319 655,479 1114,479 325,0 638,-88 939,-263 303,-174 712,-515 1231,-1021 -471,-832 -875,-1408 -1212,-1727 -338,-320 -705,-480 -1103,-480 -422,0 -759,148 -1014,443 -252,296 -379,708 -379,1239zm11701 -5370l-1683 1682c1086,1120 1628,2531 1628,4231 0,844 -138,1603 -416,2278 -277,676 -665,1203 -1166,1583 -501,379 -1070,569 -1709,569 -772,0 -1456,-238 -2053,-714 -596,-476 -1208,-1263 -1836,-2359 -553,553 -1054,946 -1499,1175 -447,229 -911,343 -1394,343 -855,0 -1542,-310 -2060,-932 -520,-620 -779,-1449 -779,-2486 0,-964 235,-1730 705,-2296 471,-567 1116,-851 1936,-851 639,0 1211,208 1717,624 507,417 1038,1107 1592,2071l3111 -3128c-688,-361 -1454,-621 -2297,-779l452 -1391c1109,217 2074,584 2893,1103l1700 -1700 1158 977z"/>
   <path class="fil0" d="M123280 77283c0,-927 204,-1760 615,-2495 409,-735 982,-1311 1717,-1726 736,-417 1586,-624 2551,-624 964,0 1817,207 2559,624 741,415 1316,991 1726,1726 410,735 615,1568 615,2495 0,713 -138,1364 -416,1954 -277,591 -681,1079 -1212,1464l1520 0 0 1665 -13418 0 0 -1737 5280 0c-506,-385 -890,-868 -1149,-1446 -258,-579 -388,-1211 -388,-1900zm8264 146c0,-615 -142,-1167 -424,-1655 -283,-489 -682,-874 -1195,-1157 -512,-284 -1100,-425 -1762,-425 -663,0 -1252,141 -1764,425 -512,283 -907,668 -1184,1157 -278,488 -416,1040 -416,1655 0,602 138,1151 416,1645 277,494 672,880 1184,1158 512,277 1101,416 1764,416 662,0 1250,-139 1762,-416 513,-278 912,-664 1195,-1158 282,-494 424,-1043 424,-1645zm-6565 -9061c-554,-301 -976,-747 -1266,-1338 -289,-590 -433,-1308 -433,-2152l1682 0c-12,97 -19,230 -19,397 0,941 280,1679 842,2216 561,537 1359,805 2396,805l4774 0 0 1737 -9585 0 0 -1665 1609 0zm-1699 -9095c0,-1326 325,-2342 976,-3048 651,-706 1622,-1058 2912,-1058l5787 0 0 1647 -1266 0c445,289 786,701 1022,1238 235,536 352,1173 352,1908 0,1073 -259,1931 -777,2577 -519,645 -1199,967 -2044,967 -844,0 -1522,-308 -2034,-922 -512,-615 -769,-1592 -769,-2930l0 -2748 -344 0c-747,0 -1319,217 -1717,651 -399,433 -597,1072 -597,1916 0,567 93,1121 280,1665 187,541 438,1000 751,1373l-1302 724c-398,-495 -704,-1085 -914,-1773 -210,-687 -316,-1416 -316,-2187zm8445 397c0,-663 -148,-1235 -443,-1718 -296,-482 -715,-831 -1257,-1048l-1338 0 0 2676c0,1472 494,2207 1482,2207 483,0 862,-187 1140,-561 277,-374 416,-892 416,-1556zm-8445 -12840c0,-1218 352,-2184 1057,-2902 707,-717 1740,-1075 3102,-1075l5516 0 0 1735 -5317 0c-928,0 -1628,223 -2098,669 -470,446 -705,1085 -705,1917 0,940 274,1682 824,2225 548,542 1333,813 2359,813l4937 0 0 1736 -9585 0 0 -1664 1447 0c-494,-349 -874,-822 -1140,-1419 -264,-596 -397,-1275 -397,-2035zm-3743 -16293l13418 0 0 1663 -1520 0c531,386 935,874 1212,1466 278,590 416,1241 416,1953 0,927 -205,1760 -615,2495 -410,735 -985,1311 -1726,1727 -742,416 -1595,624 -2559,624 -965,0 -1815,-208 -2551,-624 -735,-416 -1308,-992 -1717,-1727 -411,-735 -615,-1568 -615,-2495 0,-688 130,-1321 388,-1900 259,-578 643,-1060 1149,-1446l-5280 0 0 -1736zm12007 4937c0,-603 -142,-1152 -424,-1646 -283,-494 -682,-880 -1195,-1157 -512,-278 -1100,-417 -1762,-417 -663,0 -1252,139 -1764,417 -512,277 -907,663 -1184,1157 -278,494 -416,1043 -416,1646 0,615 138,1166 416,1654 277,488 672,874 1184,1158 512,283 1101,425 1764,425 662,0 1250,-142 1762,-425 513,-284 912,-670 1195,-1158 282,-488 424,-1039 424,-1654zm-8174 -8229l0 -1736 9585 0 0 1736 -9585 0zm-90 -10163c0,-1217 352,-2185 1057,-2903 707,-717 1740,-1075 3102,-1075l5516 0 0 1736 -5317 0c-928,0 -1628,223 -2098,669 -470,446 -705,1085 -705,1916 0,941 274,1683 824,2225 548,542 1333,814 2359,814l4937 0 0 1736 -9585 0 0 -1664 1447 0c-494,-350 -874,-822 -1140,-1419 -264,-597 -397,-1275 -397,-2035zm90 -16421l8283 0c1676,0 2914,417 3716,1248 802,833 1203,2075 1203,3725 0,904 -124,1767 -372,2587 -246,820 -599,1482 -1057,1989l-1338 -832c385,-446 690,-997 913,-1655 223,-656 335,-1335 335,-2034 0,-1121 -266,-1950 -797,-2487 -530,-536 -1337,-804 -2423,-804l-759 0c494,410 865,913 1113,1510 247,597 370,1244 370,1943 0,918 -196,1746 -588,2487 -392,742 -940,1324 -1645,1746 -706,421 -1510,633 -2414,633 -905,0 -1710,-212 -2415,-633 -705,-422 -1251,-1004 -1636,-1746 -387,-741 -579,-1569 -579,-2487 0,-722 133,-1395 397,-2016 266,-620 658,-1129 1176,-1527l-1483 0 0 -1647zm7668 4992c0,-627 -133,-1190 -398,-1691 -265,-500 -636,-892 -1113,-1176 -475,-282 -1015,-424 -1617,-424 -929,0 -1679,308 -2251,922 -574,615 -860,1405 -860,2369 0,976 286,1772 860,2387 572,615 1322,923 2251,923 602,0 1142,-143 1617,-426 477,-283 848,-675 1113,-1174 265,-501 398,-1071 398,-1710z"/>
   <g>
    <path class="fil1" d="M142395 26413c0,337 -109,618 -326,841 -217,223 -482,334 -796,334 -314,0 -581,-111 -804,-334 -224,-223 -335,-504 -335,-841 0,-339 106,-618 316,-842 211,-223 474,-334 787,-334 326,0 600,111 823,334 223,224 335,503 335,842z"/>
    <path class="fil1" d="M121526 26377c0,337 -109,618 -327,841 -216,223 -481,335 -794,335 -314,0 -582,-112 -806,-335 -222,-223 -334,-504 -334,-841 0,-338 106,-618 317,-841 210,-223 473,-334 786,-334 326,0 600,111 822,334 224,223 336,503 336,841z"/>
   </g>
  </g>
 </g>
</svg>
