<?xml version="1.0" encoding="UTF-8"?>
<!DOCTYPE svg PUBLIC "-//W3C//DTD SVG 1.1//EN" "http://www.w3.org/Graphics/SVG/1.1/DTD/svg11.dtd">
<!-- Creator: CorelDRAW X8 -->
<svg xmlns="http://www.w3.org/2000/svg" xml:space="preserve" width="25.5267mm" height="14.2979mm" version="1.1" style="shape-rendering:geometricPrecision; text-rendering:geometricPrecision; image-rendering:optimizeQuality; fill-rule:evenodd; clip-rule:evenodd"
viewBox="0 0 11833 6628"
 xmlns:xlink="http://www.w3.org/1999/xlink">
 <defs>
  <style type="text/css">
   <![CDATA[
    .fil0 {fill:red}
   ]]>
  </style>
 </defs>
 <g id="Слой_x0020_1">
  <metadata id="CorelCorpID_0Corel-Layer"/>
  <path class="fil0" d="M5310 997l-4034 0c-63,0 -115,52 -115,115l0 0c0,63 52,115 115,115l4034 0c63,0 114,-52 114,-115l0 0c0,-63 -51,-115 -114,-115zm0 1771l-4034 0c-63,0 -115,51 -115,115l0 0c0,63 52,114 115,114l4034 0c63,0 114,-51 114,-114l0 0c0,-64 -51,-115 -114,-115zm-1 -886l-1901 0c-63,0 -115,52 -115,115l0 0c0,63 52,115 115,115l1901 0c64,0 115,-52 115,-115l0 0c0,-63 -51,-115 -115,-115zm1277 1613c0,-874 0,-1748 0,-2621 0,-483 -391,-874 -874,-874 -1613,0 -3225,0 -4838,0 -483,0 -874,391 -874,874 0,873 0,1747 0,2621 0,482 391,873 874,873 971,0 1942,0 2913,0 562,237 1123,474 1685,710 -68,-236 -135,-473 -203,-710 147,0 295,0 443,0 483,0 874,-391 874,-873zm3994 -2945c48,-68 70,-97 118,-169l91 -144c4,-20 16,-24 22,-37 -680,-675 -1462,518 -1230,1221 88,265 234,312 477,433l86 -251c18,-76 32,-163 50,-233 72,-277 232,-601 386,-820zm510 -245c-470,289 -923,1328 -759,1683 109,235 340,47 53,942 -206,640 -502,1173 -940,1639 -505,538 -520,387 -761,410 -562,53 -923,1058 -1114,1475 1064,220 1089,408 1954,-605 450,-527 834,-965 1224,-1639 261,-452 1320,-2636 1039,-3155 -137,-253 -486,-607 -696,-750zm-2707 4533c-418,-493 -1049,-30 -1299,294 -402,524 -305,1008 285,1193 218,-830 621,-1011 1014,-1487z"/>
 </g>
</svg>
