<?xml version="1.0" encoding="UTF-8"?>
<!DOCTYPE svg PUBLIC "-//W3C//DTD SVG 1.1//EN" "http://www.w3.org/Graphics/SVG/1.1/DTD/svg11.dtd">
<!-- Creator: CorelDRAW X8 -->
<svg xmlns="http://www.w3.org/2000/svg" xml:space="preserve" width="7.0314mm" height="9.8918mm" version="1.1" style="shape-rendering:geometricPrecision; text-rendering:geometricPrecision; image-rendering:optimizeQuality; fill-rule:evenodd; clip-rule:evenodd"
viewBox="0 0 57 80"
 xmlns:xlink="http://www.w3.org/1999/xlink">
 <defs>
  <style type="text/css">
   <![CDATA[
    .fil0 {fill:red}
   ]]>
  </style>
 </defs>
 <g id="Слой_x0020_1">
  <metadata id="CorelCorpID_0Corel-Layer"/>
  <path class="fil0" d="M28 0c16,0 29,13 29,28 0,3 -1,6 -1,8l0 0c-3,8 -22,35 -28,44 -5,-9 -25,-37 -27,-44l0 0c-1,-2 -1,-5 -1,-8 0,-15 13,-28 28,-28zm0 12c9,0 17,7 17,16 0,9 -8,17 -17,17 -9,0 -16,-8 -16,-17 0,-9 7,-16 16,-16z"/>
 </g>
</svg>
