<?xml version="1.0" encoding="UTF-8"?>
<!DOCTYPE svg PUBLIC "-//W3C//DTD SVG 1.1//EN" "http://www.w3.org/Graphics/SVG/1.1/DTD/svg11.dtd">
<!-- Creator: CorelDRAW X8 -->
<svg xmlns="http://www.w3.org/2000/svg" xml:space="preserve" width="95.5883mm" height="63.7253mm" version="1.1" style="shape-rendering:geometricPrecision; text-rendering:geometricPrecision; image-rendering:optimizeQuality; fill-rule:evenodd; clip-rule:evenodd"
viewBox="0 0 20276 13517"
 xmlns:xlink="http://www.w3.org/1999/xlink">
 <defs>
  <style type="text/css">
   <![CDATA[
    .str0 {stroke:red;stroke-width:53.0301;stroke-dasharray:106.060266 265.150666}
    .fil3 {fill:none}
    .fil1 {fill:black;fill-rule:nonzero}
    .fil2 {fill:red;fill-rule:nonzero}
    .fil0 {fill:url(#id0)}
   ]]>
  </style>
  <radialGradient id="id0" gradientUnits="userSpaceOnUse" gradientTransform="matrix(1 -0 -0 0.666663 0 2253)" cx="10138.1" cy="6758.71" r="4882.76" fx="10138.1" fy="6758.71">
   <stop offset="0" style="stop-opacity:1; stop-color:#DEDEDE"/>
   <stop offset="0.631373" style="stop-opacity:1; stop-color:#B9B9B9"/>
   <stop offset="1" style="stop-opacity:1; stop-color:#949494"/>
  </radialGradient>
 </defs>
 <g id="Слой_x0020_1">
  <metadata id="CorelCorpID_0Corel-Layer"/>
  <rect class="fil0" width="20276" height="13517"/>
  <polygon class="fil1" points="9658,10129 8843,10129 8843,8741 7649,8741 7649,10129 6834,10129 6834,6975 7649,6975 7649,8129 8843,8129 8843,6975 9658,6975 "/>
  <polygon class="fil1" points="13223,10129 12225,10129 11285,8867 11284,8868 11097,8618 11097,9099 11097,10129 10282,10129 10282,6975 11097,6975 11097,8291 11097,8306 12220,6975 13162,6975 11932,8434 "/>
  <path class="fil1" d="M5112 10194c-235,0 -451,-35 -650,-104 -199,-69 -369,-173 -512,-310 -143,-137 -254,-308 -332,-514 -79,-205 -118,-442 -118,-711 0,-250 38,-477 113,-681 75,-204 184,-379 326,-525 138,-140 308,-248 510,-324 203,-77 425,-115 665,-115 133,0 253,7 360,22 106,15 205,34 296,58 94,28 180,57 257,90 77,34 145,64 202,93l0 765 -93 0c-40,-34 -89,-74 -149,-120 -61,-46 -129,-92 -205,-137 -78,-44 -162,-82 -253,-113 -90,-31 -187,-46 -289,-46 -115,0 -224,18 -327,54 -104,35 -199,95 -287,178 -83,81 -151,188 -202,320 -51,133 -78,294 -78,483 0,198 29,363 84,496 56,132 126,237 212,313 86,78 182,133 287,166 107,34 211,50 314,50 99,0 198,-14 294,-44 97,-29 186,-68 269,-119 68,-41 133,-83 192,-129 59,-47 109,-87 147,-120l84 0 0 754c-78,34 -154,68 -227,99 -71,31 -147,58 -227,80 -102,30 -199,52 -290,68 -90,15 -214,23 -373,23z"/>
  <path class="fil1" d="M6355 5325c0,310 -131,563 -395,756 -263,195 -620,292 -1071,292 -261,0 -489,-23 -683,-69 -194,-45 -376,-104 -545,-174l0 -755 43 0 46 0c168,134 356,237 563,309 208,71 408,107 600,107 50,0 114,-4 195,-13 80,-7 145,-22 197,-41 61,-27 112,-58 153,-96 40,-38 60,-95 60,-170 0,-69 -29,-129 -88,-179 -58,-50 -144,-88 -257,-115 -119,-28 -244,-55 -376,-80 -132,-24 -256,-56 -372,-94 -265,-86 -455,-203 -572,-350 -116,-148 -175,-331 -175,-550 0,-293 132,-533 395,-719 263,-185 602,-278 1015,-278 208,0 412,20 615,60 203,40 378,91 526,152l0 725 -86 0c-127,-101 -283,-186 -467,-254 -184,-68 -372,-102 -564,-102 -68,0 -135,5 -202,14 -67,9 -131,26 -193,51 -55,22 -102,54 -142,97 -40,42 -59,91 -59,146 0,83 31,147 95,192 64,44 183,85 360,121 115,24 227,48 334,71 106,22 220,53 343,93 242,79 419,186 534,322 115,136 173,313 173,531z"/>
  <polygon class="fil1" points="9664,6317 8849,6317 8849,4928 7656,4928 7656,6317 6840,6317 6840,3162 7656,3162 7656,4316 8849,4316 8849,3162 9664,3162 "/>
  <polygon class="fil1" points="13251,3162 12101,6317 11190,6317 10040,3162 10895,3162 11657,5377 12419,3162 "/>
  <path class="fil1" d="M15790 3501c0,-103 30,-186 91,-247 60,-61 148,-92 264,-92l470 0 0 148 -453 0c-79,0 -139,19 -179,57 -40,38 -60,93 -60,164 0,80 23,143 70,189 47,47 114,70 201,70l421 0 0 148 -817 0 0 -142 123 0c-42,-30 -74,-70 -97,-121 -22,-51 -34,-109 -34,-174zm662 1144c0,-53 -11,-101 -34,-144 -23,-42 -54,-76 -95,-100 -41,-24 -87,-36 -138,-36 -79,0 -143,26 -192,79 -49,52 -73,119 -73,201 0,84 24,152 73,204 49,52 113,79 192,79 51,0 97,-12 138,-37 41,-24 72,-57 95,-100 23,-42 34,-91 34,-146zm-654 -425l706 0c143,0 249,35 317,106 68,71 103,177 103,318 0,77 -11,151 -32,220 -21,70 -51,127 -90,170l-114 -71c33,-38 59,-85 78,-141 19,-56 28,-114 28,-173 0,-96 -23,-167 -68,-212 -45,-46 -114,-69 -206,-69l-65 0c42,35 74,78 95,129 21,51 31,106 31,165 0,79 -16,149 -50,212 -33,64 -80,113 -140,149 -60,36 -129,54 -206,54 -77,0 -146,-18 -206,-54 -60,-36 -106,-85 -139,-149 -33,-63 -50,-133 -50,-212 0,-61 12,-119 34,-171 23,-53 56,-97 101,-131l-127 0 0 -140zm0 1212l0 -148 817 0 0 148 -817 0zm826 538c0,67 -9,131 -27,193 -18,61 -40,110 -68,145l-117 -62c25,-36 46,-80 61,-131 16,-52 24,-104 24,-156 0,-129 -38,-194 -112,-194 -24,0 -44,9 -58,26 -15,18 -25,39 -32,66 -6,26 -14,63 -22,111 -10,66 -22,120 -36,161 -13,42 -36,78 -67,108 -32,29 -77,44 -134,44 -75,0 -134,-31 -179,-92 -44,-62 -67,-145 -67,-248 0,-55 7,-109 20,-164 14,-54 32,-99 54,-134l118 63c-44,67 -65,146 -65,236 0,63 10,111 31,143 20,33 47,50 81,50 27,0 48,-9 64,-28 15,-18 26,-41 33,-69 8,-27 16,-65 25,-114 11,-66 24,-119 36,-160 13,-41 35,-75 66,-104 31,-29 74,-43 129,-43 74,0 133,31 177,95 44,63 65,149 65,258zm-709 843c0,71 22,130 65,178 43,48 100,76 170,84l0 -524c-69,8 -126,36 -169,84 -44,48 -66,107 -66,178zm296 -404c12,0 26,1 45,3l0 663c72,-9 130,-41 173,-95 44,-54 66,-121 66,-201 0,-97 -33,-176 -99,-236l96 -81c43,37 76,83 99,138 22,55 33,116 33,184 0,86 -17,163 -53,230 -35,66 -85,118 -149,155 -63,36 -135,54 -215,54 -80,0 -151,-17 -215,-53 -63,-35 -113,-84 -148,-146 -36,-63 -54,-133 -54,-211 0,-78 18,-148 54,-209 35,-61 85,-109 148,-143 64,-35 137,-52 219,-52zm284 1440c0,-51 -12,-98 -36,-140 -24,-42 -58,-75 -102,-99 -44,-23 -94,-35 -150,-35 -57,0 -107,12 -151,35 -43,24 -77,57 -101,99 -23,42 -35,89 -35,140 0,53 12,100 35,141 24,42 58,75 101,99 44,24 94,36 151,36 56,0 106,-12 150,-36 44,-24 78,-57 102,-99 24,-41 36,-88 36,-141zm-1024 -421l1144 0 0 142 -129 0c45,33 79,75 103,125 24,50 35,106 35,167 0,79 -17,150 -52,212 -35,63 -84,112 -147,148 -63,35 -136,53 -218,53 -83,0 -155,-18 -218,-53 -62,-36 -111,-85 -146,-148 -35,-62 -53,-133 -53,-212 0,-59 11,-113 33,-162 23,-50 55,-91 98,-124l-450 0 0 -148zm1033 2384c0,-107 -34,-195 -102,-263l-305 306c41,74 80,126 115,155 36,30 75,44 120,44 51,0 93,-22 124,-67 32,-45 48,-103 48,-175zm-869 -37c0,49 12,86 36,114 24,27 56,40 95,40 27,0 54,-7 80,-22 26,-15 60,-44 105,-87 -40,-71 -75,-120 -104,-147 -28,-28 -60,-41 -94,-41 -36,0 -64,12 -86,38 -22,25 -32,60 -32,105zm997 -458l-143 144c92,95 139,216 139,360 0,72 -12,137 -36,195 -24,57 -57,102 -99,135 -43,32 -92,48 -146,48 -66,0 -124,-20 -175,-61 -51,-40 -103,-107 -157,-201 -47,47 -89,81 -127,100 -39,20 -78,30 -119,30 -73,0 -132,-27 -176,-80 -44,-53 -66,-123 -66,-212 0,-82 20,-147 60,-196 40,-48 95,-72 165,-72 54,0 103,18 146,53 43,36 89,94 136,177l265 -267c-58,-31 -124,-53 -196,-66l39 -119c94,18 177,50 247,94l145 -145 98 83z"/>
  <path class="fil1" d="M14011 9695c0,-79 18,-150 53,-213 34,-62 83,-112 146,-147 63,-35 135,-53 217,-53 83,0 155,18 219,53 63,35 112,85 147,147 35,63 52,134 52,213 0,61 -12,116 -35,167 -24,50 -58,92 -104,124l130 0 0 142 -1144 0 0 -148 450 0c-43,-33 -76,-74 -98,-123 -22,-49 -33,-103 -33,-162zm705 12c0,-52 -12,-99 -36,-141 -25,-41 -59,-74 -102,-98 -44,-25 -94,-37 -151,-37 -56,0 -106,12 -150,37 -44,24 -77,57 -101,98 -24,42 -35,89 -35,141 0,52 11,99 35,141 24,42 57,75 101,98 44,24 94,36 150,36 57,0 107,-12 151,-36 43,-23 77,-56 102,-98 24,-42 36,-89 36,-141zm-560 -772c-47,-26 -83,-64 -108,-114 -25,-51 -37,-112 -37,-184l144 0c-2,9 -2,20 -2,34 0,80 24,143 72,189 47,46 116,69 204,69l407 0 0 148 -817 0 0 -142 137 0zm-145 -776c0,-113 28,-199 83,-259 56,-61 139,-91 249,-91l493 0 0 141 -108 0c38,24 67,60 87,105 20,46 30,100 30,163 0,91 -22,165 -66,220 -44,55 -102,82 -174,82 -72,0 -130,-26 -174,-78 -43,-53 -65,-136 -65,-250l0 -235 -30 0c-63,0 -112,19 -146,56 -34,37 -51,91 -51,163 0,49 8,96 24,142 16,46 37,86 64,117l-111 62c-34,-42 -60,-92 -78,-151 -18,-59 -27,-121 -27,-187zm720 34c0,-56 -12,-105 -38,-146 -25,-41 -61,-71 -107,-90l-114 0 0 229c0,125 42,188 126,188 42,0 74,-16 98,-48 23,-32 35,-76 35,-133zm-720 -1094c0,-104 30,-187 90,-248 60,-61 149,-92 265,-92l470 0 0 148 -453 0c-79,0 -139,19 -179,57 -40,38 -60,93 -60,164 0,80 23,143 70,190 47,46 114,69 201,69l421 0 0 148 -817 0 0 -142 123 0c-42,-30 -74,-70 -97,-121 -23,-51 -34,-109 -34,-173zm-319 -1390l1144 0 0 142 -130 0c46,33 80,75 104,125 23,50 35,106 35,167 0,79 -17,150 -52,212 -35,63 -84,112 -147,148 -64,35 -136,53 -219,53 -82,0 -154,-18 -217,-53 -63,-36 -112,-85 -146,-148 -35,-62 -53,-133 -53,-212 0,-59 11,-113 33,-162 22,-50 55,-91 98,-124l-450 0 0 -148zm1024 421c0,-51 -12,-98 -36,-140 -25,-42 -59,-75 -102,-99 -44,-23 -94,-35 -151,-35 -56,0 -106,12 -150,35 -44,24 -77,57 -101,99 -24,42 -35,89 -35,140 0,53 11,100 35,141 24,42 57,75 101,99 44,24 94,36 150,36 57,0 107,-12 151,-36 43,-24 77,-57 102,-99 24,-41 36,-88 36,-141zm-697 -701l0 -148 817 0 0 148 -817 0zm-8 -867c0,-103 30,-186 90,-247 60,-61 149,-92 265,-92l470 0 0 148 -453 0c-79,0 -139,19 -179,57 -40,38 -60,93 -60,164 0,80 23,143 70,189 47,46 114,70 201,70l421 0 0 148 -817 0 0 -142 123 0c-42,-30 -74,-70 -97,-121 -23,-51 -34,-109 -34,-174zm8 -1400l706 0c143,0 248,36 317,107 68,71 102,177 102,317 0,77 -10,151 -31,221 -21,70 -51,126 -90,169l-115 -71c33,-38 59,-85 78,-141 19,-56 29,-113 29,-173 0,-96 -23,-166 -68,-212 -45,-46 -114,-69 -207,-69l-64 0c42,35 73,78 94,129 22,51 32,106 32,166 0,78 -17,149 -50,212 -33,63 -80,113 -140,149 -61,36 -129,54 -206,54 -77,0 -146,-18 -206,-54 -60,-36 -107,-86 -140,-149 -32,-63 -49,-134 -49,-212 0,-62 11,-119 34,-172 23,-53 56,-96 100,-130l-126 0 0 -141zm654 426c0,-54 -12,-102 -34,-144 -23,-43 -55,-76 -95,-101 -41,-24 -87,-36 -138,-36 -79,0 -143,26 -192,79 -49,52 -73,120 -73,202 0,83 24,151 73,203 49,53 113,79 192,79 51,0 97,-12 138,-36 40,-24 72,-58 95,-100 22,-43 34,-92 34,-146z"/>
  <path class="fil2" d="M15641 5358c0,29 -9,52 -28,72 -18,19 -41,28 -68,28 -27,0 -49,-9 -68,-28 -19,-20 -29,-43 -29,-72 0,-29 9,-53 27,-72 18,-19 40,-28 67,-28 28,0 51,9 70,28 19,19 29,43 29,72z"/>
  <path class="fil2" d="M13862 5355c0,29 -10,52 -28,71 -19,20 -41,29 -68,29 -27,0 -50,-9 -69,-29 -19,-19 -28,-42 -28,-71 0,-29 9,-53 27,-72 18,-19 40,-28 67,-28 28,0 51,9 70,28 19,19 29,43 29,72z"/>
  <line class="fil3 str0" x1="3661" y1="1239" x2="3661" y2= "12278" />
  <line class="fil3 str0" x1="16615" y1="1239" x2="16615" y2= "12278" />
  <line class="fil3 str0" x1="15798" y1="1239" x2="15798" y2= "12278" />
  <line class="fil3 str0" x1="14836" y1="1239" x2="14836" y2= "12278" />
  <line class="fil3 str0" x1="14019" y1="1239" x2="14019" y2= "12278" />
  <line class="fil3 str0" x1="1738" y1="3162" x2="18539" y2= "3162" />
  <line class="fil3 str0" x1="1738" y1="6316" x2="18539" y2= "6316" />
  <line class="fil3 str0" x1="1738" y1="6975" x2="18539" y2= "6975" />
  <line class="fil3 str0" x1="1738" y1="10129" x2="18539" y2= "10129" />
  <line class="fil3 str0" x1="6840" y1="1239" x2="6840" y2= "12278" />
  <line class="fil3 str0" x1="9658" y1="1239" x2="9658" y2= "12278" />
  <line class="fil3 str0" x1="6229" y1="1239" x2="6229" y2= "12278" />
  <rect class="fil3" x="1738" y="1239" width="16801" height="10813"/>
 </g>
</svg>
