<?xml version="1.0" encoding="UTF-8"?>
<!DOCTYPE svg PUBLIC "-//W3C//DTD SVG 1.1//EN" "http://www.w3.org/Graphics/SVG/1.1/DTD/svg11.dtd">
<!-- Creator: CorelDRAW X8 -->
<svg xmlns="http://www.w3.org/2000/svg" xml:space="preserve" width="14.1864mm" height="15.8368mm" version="1.1" style="shape-rendering:geometricPrecision; text-rendering:geometricPrecision; image-rendering:optimizeQuality; fill-rule:evenodd; clip-rule:evenodd"
viewBox="0 0 149 167"
 xmlns:xlink="http://www.w3.org/1999/xlink">
 <defs>
  <style type="text/css">
   <![CDATA[
    .fil0 {fill:red}
   ]]>
  </style>
 </defs>
 <g id="Слой_x0020_1">
  <metadata id="CorelCorpID_0Corel-Layer"/>
  <path class="fil0" d="M112 14c1,-2 2,-3 3,-4l3 -4c0,-1 0,-1 1,-1 -21,-17 -44,13 -37,31 3,6 7,8 14,11l3 -7c0,-2 1,-4 1,-6 2,-7 7,-15 12,-20zm15 -6c-14,7 -28,33 -23,42 4,6 10,1 2,24 -6,16 -15,29 -28,41 -15,13 -16,10 -23,10 -17,1 -28,27 -33,37 32,6 32,10 58,-15 14,-13 25,-24 37,-41 8,-12 39,-66 31,-79 -4,-7 -15,-16 -21,-19zm-81 114c-12,-13 -31,-1 -39,7 -12,13 -9,25 9,30 6,-21 18,-25 30,-37z"/>
 </g>
</svg>
