<?xml version="1.0" encoding="UTF-8"?>
<!DOCTYPE svg PUBLIC "-//W3C//DTD SVG 1.1//EN" "http://www.w3.org/Graphics/SVG/1.1/DTD/svg11.dtd">
<!-- Creator: CorelDRAW X8 -->
<svg xmlns="http://www.w3.org/2000/svg" xml:space="preserve" width="15.5563mm" height="16.0002mm" version="1.1" style="shape-rendering:geometricPrecision; text-rendering:geometricPrecision; image-rendering:optimizeQuality; fill-rule:evenodd; clip-rule:evenodd"
viewBox="0 0 569 585"
 xmlns:xlink="http://www.w3.org/1999/xlink">
 <defs>
  <style type="text/css">
   <![CDATA[
    .fil0 {fill:red;fill-rule:nonzero}
   ]]>
  </style>
 </defs>
 <g id="Слой_x0020_1">
  <metadata id="CorelCorpID_0Corel-Layer"/>
  <path class="fil0" d="M370 306l-60 0 0 135 -51 0 0 -135 -60 0 0 -42 171 0 0 42zm-171 -126l171 0 0 42 -171 0 0 -42zm-21 -180l152 19 -107 110 -12 -33c-86,31 -144,113 -144,205 0,120 97,217 217,217 121,0 218,-97 218,-217 0,-93 -59,-176 -146,-206l-32 -11 22 -63 32 11c114,39 191,147 191,269 0,157 -127,284 -285,284 -157,0 -284,-127 -284,-284 0,-121 76,-228 189,-268l-11 -33z"/>
 </g>
</svg>
