<?xml version="1.0" encoding="UTF-8"?>
<!DOCTYPE svg PUBLIC "-//W3C//DTD SVG 1.1//EN" "http://www.w3.org/Graphics/SVG/1.1/DTD/svg11.dtd">
<!-- Creator: CorelDRAW X8 -->
<svg xmlns="http://www.w3.org/2000/svg" xml:space="preserve" width="7.4357mm" height="7.4859mm" version="1.1" style="shape-rendering:geometricPrecision; text-rendering:geometricPrecision; image-rendering:optimizeQuality; fill-rule:evenodd; clip-rule:evenodd"
viewBox="0 0 1152 1160"
 xmlns:xlink="http://www.w3.org/1999/xlink">
 <defs>
  <style type="text/css">
   <![CDATA[
    .fil0 {fill:red}
   ]]>
  </style>
 </defs>
 <g id="Слой_x0020_1">
  <metadata id="CorelCorpID_0Corel-Layer"/>
  <path class="fil0" d="M328 939c75,55 160,81 260,81 253,0 457,-204 457,-456 0,-253 -204,-457 -457,-457 -252,0 -457,204 -457,457 0,100 31,191 87,267l-52 162 162 -54zm-15 118l-313 103 100 -313c-50,-86 -75,-183 -75,-283 0,-312 252,-564 563,-564 311,0 564,252 564,564 0,311 -253,563 -564,563 -99,0 -191,-22 -275,-70zm4 -660c19,-62 65,-105 103,-94 55,15 74,77 79,142 -9,37 -53,68 -40,82 43,73 99,125 172,153 12,14 64,-57 102,-60 64,15 122,42 130,98 5,40 -46,72 -108,89 -156,44 -484,-257 -438,-410z"/>
 </g>
</svg>
